<svg width="60" height="60" viewBox="0 0 60 60" fill="none" xmlns="http://www.w3.org/2000/svg">
<rect width="60" height="60" rx="15" fill="#FFFAFC"/>
<path d="M18.8681 17.7851V14H16.5115V17.7851C13.9381 18.3511 12 20.73 12 23.5714C12 26.4133 13.9381 28.7922 16.512 29.3576V45.9995H18.8686V29.3571C21.4425 28.7912 23.3801 26.4128 23.3801 23.5709C23.3801 20.729 21.442 18.3511 18.8681 17.7851ZM17.6898 27.0371C15.8521 27.0371 14.3566 25.4823 14.3566 23.5714C14.3566 21.6604 15.8521 20.1057 17.6898 20.1057C19.528 20.1057 21.0235 21.6604 21.0235 23.5714C21.0235 25.4823 19.5284 27.0371 17.6898 27.0371Z" fill="#F7CCC3"/>
<path d="M30.6781 30.6414V14H28.3215V30.6414C25.7476 31.2068 23.8095 33.5857 23.8095 36.4276C23.8095 39.2696 25.7476 41.6479 28.321 42.2144V46H30.6776V42.2144C33.2515 41.6484 35.1896 39.2696 35.1896 36.4276C35.1896 33.5857 33.252 31.2073 30.6781 30.6414ZM29.4993 39.8933C27.6616 39.8933 26.1661 38.3386 26.1661 36.4276C26.1661 34.5172 27.6616 32.9625 29.4993 32.9625C31.3375 32.9625 32.833 34.5172 32.833 36.4276C32.833 38.3386 31.3379 39.8933 29.4993 39.8933Z" fill="#F7CCC3"/>
<path d="M47 25.9757C47 23.1338 45.0619 20.7554 42.4876 20.1895V14H40.1309V20.19C37.5575 20.7559 35.6199 23.1343 35.6199 25.9757C35.6199 28.8177 37.558 31.1961 40.1314 31.7625V45.9995H42.488V31.7625C45.0619 31.1965 47 28.8177 47 25.9757ZM41.3097 29.4414C39.472 29.4414 37.9765 27.8867 37.9765 25.9757C37.9765 24.0648 39.472 22.5106 41.3097 22.5106C43.1479 22.5106 44.6434 24.0648 44.6434 25.9757C44.6434 27.8867 43.1479 29.4414 41.3097 29.4414Z" fill="#F7CCC3"/>
</svg>
