<svg width="37" height="11" viewBox="0 0 37 11" fill="none" xmlns="http://www.w3.org/2000/svg">
<path d="M3.00006 7.70581C3.00006 7.15353 3.44777 6.70581 4.00005 6.70581L35.5 6.70581C36.3285 6.70581 37 7.37738 37 8.2058C37 9.03423 36.3285 9.7058 35.5 9.7058L2.36906 9.7058C1.82207 9.7058 1.66223 8.95953 2.16123 8.7355L2.40418 8.62642C2.76674 8.46365 3.00002 8.10324 3.00006 7.70581Z" fill="black"/>
<path d="M1.26836 8.94522C0.83565 8.20892 1.31123 7.05711 2.18165 6.7333L18.1687 0.785892C19.0229 0.468116 19.8403 0.834496 20.12 1.66046C20.3692 2.39637 19.8922 3.34501 19.1311 3.62744L2.99245 9.61578C2.26584 9.88539 1.562 9.61164 1.26836 8.94522Z" fill="black"/>
</svg>
