<svg width="25" height="25" viewBox="0 0 25 25" fill="none" xmlns="http://www.w3.org/2000/svg">
<path d="M24.1205 22.7105L17.7205 16.3105C19.3367 14.3236 20.129 11.7923 19.934 9.23855C19.7389 6.68476 18.5715 4.30315 16.6723 2.58476C14.7731 0.866373 12.2869 -0.0577956 9.7264 0.00280225C7.16589 0.0634001 4.72624 1.10414 2.91046 2.91046C1.10414 4.72624 0.0634001 7.16589 0.00280225 9.7264C-0.0577956 12.2869 0.866373 14.7731 2.58476 16.6723C4.30315 18.5715 6.68476 19.7389 9.23855 19.934C11.7923 20.129 14.3236 19.3367 16.3105 17.7205L22.7105 24.1205C22.9018 24.2843 23.1478 24.3699 23.3995 24.3602C23.6512 24.3504 23.8899 24.2461 24.068 24.068C24.2461 23.8899 24.3504 23.6512 24.3602 23.3995C24.3699 23.1478 24.2843 22.9018 24.1205 22.7105ZM4.32046 15.6405C3.01104 14.3325 2.19563 12.611 2.01315 10.7692C1.83066 8.9275 2.2924 7.07946 3.31968 5.53998C4.34697 4.00049 5.87625 2.86481 7.64697 2.32643C9.4177 1.78804 11.3203 1.88026 13.0307 2.58737C14.741 3.29448 16.1533 4.57273 17.0269 6.20435C17.9005 7.83596 18.1813 9.72 17.8216 11.5355C17.4618 13.3509 16.4838 14.9855 15.054 16.1607C13.6242 17.3359 11.8312 17.979 9.98046 17.9805C8.92917 17.984 7.88761 17.779 6.91607 17.3774C5.94453 16.9757 5.06231 16.3854 4.32046 15.6405ZM10.9805 3.98046C10.9805 4.24567 10.8751 4.50003 10.6876 4.68756C10.5 4.8751 10.2457 4.98046 9.98046 4.98046C8.65437 4.98046 7.3826 5.50724 6.44492 6.44492C5.50724 7.3826 4.98046 8.65437 4.98046 9.98046C4.98046 10.2457 4.8751 10.5 4.68756 10.6876C4.50003 10.8751 4.24567 10.9805 3.98046 10.9805C3.71524 10.9805 3.46089 10.8751 3.27335 10.6876C3.08581 10.5 2.98046 10.2457 2.98046 9.98046C2.98046 8.12394 3.71795 6.34346 5.03071 5.03071C6.34346 3.71795 8.12394 2.98046 9.98046 2.98046C10.2457 2.98046 10.5 3.08581 10.6876 3.27335C10.8751 3.46089 10.9805 3.71524 10.9805 3.98046Z" fill="#F7CCC3"/>
</svg>
