<svg width="20" height="20" viewBox="0 0 20 20" fill="none" xmlns="http://www.w3.org/2000/svg">
<path d="M12.3769 10L19.5077 2.86917C19.6638 2.7131 19.7876 2.52781 19.872 2.32389C19.9565 2.11997 20 1.90142 20 1.6807C20 1.45998 19.9565 1.24143 19.872 1.03751C19.7875 0.833596 19.6637 0.648315 19.5077 0.492248C19.3516 0.33618 19.1663 0.212382 18.9624 0.127922C18.7585 0.0434624 18.5399 -5.46526e-06 18.3192 5.15398e-10C18.0985 5.46629e-06 17.8799 0.0434843 17.676 0.127954C17.4721 0.212425 17.2868 0.336232 17.1307 0.492307L10 7.62302L2.86928 0.492307C2.71321 0.336232 2.52793 0.212425 2.32401 0.127954C2.1201 0.0434843 1.90154 5.46464e-06 1.68082 5.15398e-10C1.46011 -5.46361e-06 1.24155 0.0434624 1.03763 0.127922C0.833711 0.212382 0.648424 0.33618 0.492349 0.492248C0.336274 0.648315 0.212466 0.833596 0.127996 1.03751C0.043526 1.24143 4.71357e-05 1.45998 4.16748e-05 1.6807C3.6214e-05 1.90142 0.0435049 2.11997 0.127965 2.32389C0.212425 2.52781 0.336223 2.7131 0.49229 2.86917L7.62313 10L0.49229 17.1307C0.336215 17.2868 0.21241 17.4721 0.127943 17.676C0.0434753 17.8799 0 18.0985 0 18.3192C0 18.5399 0.0434753 18.7585 0.127943 18.9624C0.21241 19.1663 0.336215 19.3516 0.49229 19.5077C0.807499 19.8229 1.23501 20 1.68078 20C1.90151 20 2.12007 19.9565 2.32399 19.8721C2.52791 19.7876 2.7132 19.6638 2.86928 19.5077L10 12.3769L17.1307 19.5077C17.4459 19.8229 17.8734 20 18.3192 20C18.765 20 19.1925 19.8229 19.5077 19.5077C19.8229 19.1925 20 18.765 20 18.3192C20 17.8734 19.8229 17.4459 19.5077 17.1307L12.3769 10Z" fill="black"/>
</svg>
